{
  "accessors": [
    {
      "bufferView": 2,
      "componentType": 5126,
      "count": 343,
      "max": [
        0.37588369846343994,
        0.38326510787010193,
        1.7582910060882568
      ],
      "min": [
        -0.37588369846343994,
        -0.04669478163123131,
        0.15596170723438263
      ],
      "type": "VEC3"
    },
    {
      "bufferView": 2,
      "byteOffset": 4116,
      "componentType": 5126,
      "count": 343,
      "max": [
        0.8404278755187988,
        0.9998711943626404,
        0.999918520450592
      ],
      "min": [
        -0.8404278755187988,
        -0.9094278812408447,
        -0.03524918481707573
      ],
      "type": "VEC3"
    },
    {
      "bufferView": 3,
      "componentType": 5126,
      "count": 343,
      "max": [
        0.38938766717910767,
        0.9996191263198853,
        0.9502376317977905,
        1.0
      ],
      "min": [
        -1.0,
        -0.999530553817749,
        -0.9502360224723816,
        1.0
      ],
      "type": "VEC4"
    },
    {
      "bufferView": 1,
      "componentType": 5126,
      "count": 343,
      "max": [
        0.93017578125,
        0.9884644150733948
      ],
      "min": [
        0.070556640625,
        0.021972719579935074
      ],
      "type": "VEC2"
    },
    {
      "bufferView": 0,
      "componentType": 5125,
      "count": 1794,
      "type": "SCALAR"
    },
    {
      "bufferView": 2,
      "byteOffset": 8232,
      "componentType": 5126,
      "count": 3250,
      "max": [
        0.781531810760498,
        0.21248209476470947,
        1.9975390434265137
      ],
      "min": [
        -0.7665945887565613,
        -0.2945084869861603,
        -0.02316270023584366
      ],
      "type": "VEC3"
    },
    {
      "bufferView": 2,
      "byteOffset": 47232,
      "componentType": 5126,
      "count": 3250,
      "max": [
        0.9996039867401123,
        0.9996737241744995,
        0.998904824256897
      ],
      "min": [
        -0.9991883039474487,
        -0.999933123588562,
        -0.9999651312828064
      ],
      "type": "VEC3"
    },
    {
      "bufferView": 3,
      "byteOffset": 5488,
      "componentType": 5126,
      "count": 3250,
      "max": [
        1.0,
        0.9999651312828064,
        0.9999331831932068,
        1.0
      ],
      "min": [
        -0.9996094703674316,
        -0.9998629093170166,
        -0.9988674521446228,
        -1.0
      ],
      "type": "VEC4"
    },
    {
      "bufferView": 1,
      "byteOffset": 2744,
      "componentType": 5126,
      "count": 3250,
      "max": [
        0.9960938096046448,
        0.9957427978515625
      ],
      "min": [
        0.002515793079510331,
        0.0029296879656612873
      ],
      "type": "VEC2"
    },
    {
      "bufferView": 0,
      "byteOffset": 7176,
      "componentType": 5125,
      "count": 16593,
      "type": "SCALAR"
    },
    {
      "bufferView": 2,
      "byteOffset": 86232,
      "componentType": 5126,
      "count": 234,
      "max": [
        -0.5678586959838867,
        -0.09141906350851059,
        1.3662199974060059
      ],
      "min": [
        -0.781531810760498,
        -0.2669694125652313,
        1.203922986984253
      ],
      "type": "VEC3"
    },
    {
      "bufferView": 2,
      "byteOffset": 89040,
      "componentType": 5126,
      "count": 234,
      "max": [
        0.9895732998847961,
        0.9902076721191406,
        0.7866880297660828
      ],
      "min": [
        -0.9801316261291504,
        -0.9749178886413574,
        -0.9912480115890503
      ],
      "type": "VEC3"
    },
    {
      "bufferView": 3,
      "byteOffset": 57488,
      "componentType": 5126,
      "count": 234,
      "max": [
        0.9826529622077942,
        0.997790515422821,
        0.9660078287124634,
        1.0
      ],
      "min": [
        -0.9913111925125122,
        -0.45905157923698425,
        -0.9936462640762329,
        -1.0
      ],
      "type": "VEC4"
    },
    {
      "bufferView": 1,
      "byteOffset": 28744,
      "componentType": 5126,
      "count": 234,
      "max": [
        0.16162109375,
        0.3408203125
      ],
      "min": [
        0.007167816162109375,
        0.007324219215661287
      ],
      "type": "VEC2"
    },
    {
      "bufferView": 0,
      "byteOffset": 73548,
      "componentType": 5125,
      "count": 1032,
      "type": "SCALAR"
    }
  ],
  "asset": {
    "extras": {
      "author": "EWTube0 (https://sketchfab.com/EWTube0)",
      "license": "CC-BY-4.0 (http://creativecommons.org/licenses/by/4.0/)",
      "source": "https://sketchfab.com/3d-models/superman-animated-0259a5c88a9344a6bf6c990757f63bbf",
      "title": "Superman Animated"
    },
    "generator": "Sketchfab-12.68.0",
    "version": "2.0"
  },
  "bufferViews": [
    {
      "buffer": 0,
      "byteLength": 77676,
      "name": "floatBufferViews",
      "target": 34963
    },
    {
      "buffer": 0,
      "byteLength": 30616,
      "byteOffset": 77676,
      "byteStride": 8,
      "name": "floatBufferViews",
      "target": 34962
    },
    {
      "buffer": 0,
      "byteLength": 91848,
      "byteOffset": 108292,
      "byteStride": 12,
      "name": "floatBufferViews",
      "target": 34962
    },
    {
      "buffer": 0,
      "byteLength": 61232,
      "byteOffset": 200140,
      "byteStride": 16,
      "name": "floatBufferViews",
      "target": 34962
    }
  ],
  "buffers": [
    {
      "byteLength": 261372,
      "uri": "scene.bin"
    }
  ],
  "images": [
    {
      "uri": "textures/Model001_Material001_baseColor.png"
    },
    {
      "uri": "textures/Model001_Material001_normal.png"
    },
    {
      "uri": "textures/Model001_Material002_baseColor.png"
    },
    {
      "uri": "textures/Model001_Material002_normal.png"
    }
  ],
  "materials": [
    {
      "doubleSided": true,
      "name": "Model001_Material001",
      "normalTexture": {
        "index": 1
      },
      "pbrMetallicRoughness": {
        "baseColorTexture": {
          "index": 0
        },
        "metallicFactor": 0.0
      }
    },
    {
      "doubleSided": true,
      "name": "Model001_Material002",
      "normalTexture": {
        "index": 3
      },
      "pbrMetallicRoughness": {
        "baseColorTexture": {
          "index": 2
        },
        "metallicFactor": 0.0
      }
    },
    {
      "doubleSided": true,
      "name": "Model001_Material003",
      "normalTexture": {
        "index": 3
      },
      "pbrMetallicRoughness": {
        "baseColorTexture": {
          "index": 2
        },
        "metallicFactor": 0.0
      }
    }
  ],
  "meshes": [
    {
      "name": "Object_0",
      "primitives": [
        {
          "attributes": {
            "NORMAL": 1,
            "POSITION": 0,
            "TANGENT": 2,
            "TEXCOORD_0": 3
          },
          "indices": 4,
          "material": 0,
          "mode": 4
        }
      ]
    },
    {
      "name": "Object_1",
      "primitives": [
        {
          "attributes": {
            "NORMAL": 6,
            "POSITION": 5,
            "TANGENT": 7,
            "TEXCOORD_0": 8
          },
          "indices": 9,
          "material": 1,
          "mode": 4
        }
      ]
    },
    {
      "name": "Object_2",
      "primitives": [
        {
          "attributes": {
            "NORMAL": 11,
            "POSITION": 10,
            "TANGENT": 12,
            "TEXCOORD_0": 13
          },
          "indices": 14,
          "material": 2,
          "mode": 4
        }
      ]
    }
  ],
  "nodes": [
    {
      "children": [
        1
      ],
      "matrix": [
        1.0,
        0.0,
        0.0,
        0.0,
        0.0,
        2.220446049250313e-16,
        -1.0,
        0.0,
        0.0,
        1.0,
        2.220446049250313e-16,
        0.0,
        0.0,
        0.0,
        0.0,
        1.0
      ],
      "name": "Sketchfab_model"
    },
    {
      "children": [
        2,
        3,
        4
      ],
      "name": "Superman Animated.obj.cleaner.materialmerger.gles"
    },
    {
      "mesh": 0,
      "name": "Object_2"
    },
    {
      "mesh": 1,
      "name": "Object_3"
    },
    {
      "mesh": 2,
      "name": "Object_4"
    }
  ],
  "samplers": [
    {
      "magFilter": 9729,
      "minFilter": 9987,
      "wrapS": 10497,
      "wrapT": 10497
    }
  ],
  "scene": 0,
  "scenes": [
    {
      "name": "Sketchfab_Scene",
      "nodes": [
        0
      ]
    }
  ],
  "textures": [
    {
      "sampler": 0,
      "source": 0
    },
    {
      "sampler": 0,
      "source": 1
    },
    {
      "sampler": 0,
      "source": 2
    },
    {
      "sampler": 0,
      "source": 3
    }
  ]
}
